<svg width="180" height="21" viewBox="0 0 180 21" fill="none" xmlns="http://www.w3.org/2000/svg">
<path d="M12.7132 0.221008V5.63701H10.5822C7.89019 5.63701 5.72119 7.77401 5.72119 10.427C5.72119 13.079 7.89019 15.216 10.5812 15.216H12.7132V20.632C17.5732 19.711 21.2012 15.511 21.2012 10.426C21.2012 5.37901 17.5742 1.17901 12.7132 0.221008Z" fill="white" style="fill:white;fill:white;fill-opacity:1;"/>
<path d="M10.582 16.91C6.955 16.91 4 14 4 10.427C4 6.854 6.954 3.943 10.58 3.943H10.992V0H10.581C4.749 0 0 4.679 0 10.426C0 16.211 4.749 20.89 10.582 20.89H10.993V16.912H10.582V16.91Z" fill="#FC5055" style="fill:#FC5055;fill:color(display-p3 0.9882 0.3137 0.3333);fill-opacity:1;"/>
<path d="M36.1568 14.074C35.3 14.7671 34.2308 15.1442 33.1288 15.142C30.4738 15.142 28.3428 13.042 28.3428 10.426C28.3428 7.81101 30.4728 5.71101 33.1288 5.71101C34.2844 5.70605 35.4016 6.1252 36.2688 6.88901L37.9518 5.23201C36.6284 4.04065 34.9094 3.38377 33.1288 3.38901C29.1648 3.38901 25.9868 6.55801 25.9868 10.426C25.9868 14.295 29.1648 17.5 33.1288 17.5C34.9608 17.5 36.6058 16.837 37.8398 15.732L36.1568 14.074ZM112.249 3.94201L106.977 10.205L101.667 3.94201L101.63 4.01601V3.94201H99.4978V16.911H101.63V7.40501L106.977 13.668L112.249 7.55301V16.911H114.343V3.94201H112.249ZM53.8058 10.426C53.8058 14.332 50.5898 17.463 46.6638 17.463C42.7008 17.463 39.5228 14.295 39.5228 10.426C39.5228 6.55801 42.7378 3.38901 46.6638 3.38901C50.5898 3.38901 53.8058 6.55801 53.8058 10.426ZM51.4128 10.426C51.4128 7.81101 49.2818 5.71101 46.6268 5.71101C43.9718 5.71101 41.8408 7.81101 41.8408 10.426C41.8408 13.042 43.9718 15.142 46.6268 15.142C49.2818 15.142 51.4128 13.042 51.4128 10.426ZM97.3298 10.426C97.3298 14.332 94.1138 17.463 90.1878 17.463C86.2238 17.463 83.0458 14.295 83.0458 10.426C83.0458 6.55801 86.2618 3.38901 90.1878 3.38901C94.1508 3.38901 97.3298 6.55801 97.3298 10.426ZM94.9738 10.426C94.9738 7.81101 92.8428 5.71101 90.1878 5.71101C87.5328 5.71101 85.4018 7.81101 85.4018 10.426C85.4018 13.042 87.5328 15.142 90.1878 15.142C92.8048 15.142 94.9738 13.042 94.9738 10.426ZM83.0088 3.94201H80.1288L74.7078 9.39501H72.5018V3.94201H70.4078V16.911H72.5018V11.495H74.6698L80.0918 16.911H82.9338L76.5028 10.463L83.0088 3.94201Z" fill="white" style="fill:white;fill:white;fill-opacity:1;"/>
<path d="M171.7 3.94202H168.86L163.4 9.39502H161.194V3.94202H159.1V16.911H161.194V11.495H163.4L168.784 16.911H171.626L165.232 10.463L171.7 3.94202ZM140.74 16.91H143.06L137.263 3.94202H134.87L129.075 16.911H131.393L132.664 14.111H139.47L140.74 16.91ZM133.6 12.047L136.067 6.59502L138.535 12.047H133.599H133.6Z" fill="white" style="fill:white;fill:white;fill-opacity:1;"/>
<path d="M67.7158 13.153C67.7159 12.6404 67.6095 12.1333 67.4035 11.6639C67.1974 11.1945 66.8962 10.773 66.5188 10.426C67.2288 9.72602 67.7158 8.76802 67.7158 7.70002C67.7126 6.70102 67.3131 5.74413 66.6049 5.03951C65.8967 4.33489 64.9378 3.94016 63.9388 3.94202H56.2368V16.947H63.9388C66.0328 16.911 67.7158 15.216 67.7158 13.153ZM58.3678 6.04302H63.9018C64.8368 6.04302 65.5838 6.77902 65.5838 7.70002C65.5838 8.62102 64.8368 9.35802 63.9018 9.35802H58.3678V6.04202V6.04302ZM63.9018 14.847H58.3678V11.495H63.9388C64.8738 11.495 65.6218 12.268 65.6218 13.153C65.5838 14.073 64.8368 14.847 63.9018 14.847Z" fill="white" style="fill:white;fill:white;fill-opacity:1;"/>
<path d="M154.351 3.97902V9.39502H146.686V3.97902H144.555V16.874H146.686V11.494H154.351V16.874H156.483V3.97902H154.351ZM128.327 13.153C128.327 11.089 126.607 9.39502 124.513 9.39502H118.979V6.04202H127.056V3.94202H116.848V16.947H124.513C126.607 16.911 128.327 15.216 128.327 13.153ZM124.513 14.847H118.979V11.495H124.513C125.448 11.495 126.196 12.268 126.196 13.153C126.196 14.073 125.448 14.847 124.513 14.847Z" fill="white" style="fill:white;fill:white;fill-opacity:1;"/>
</svg>
